<?xml version="1.0" standalone="no"?>
<!DOCTYPE svg PUBLIC "-//W3C//DTD SVG 20010904//EN"
 "http://www.w3.org/TR/2001/REC-SVG-20010904/DTD/svg10.dtd">
<svg version="1.0" xmlns="http://www.w3.org/2000/svg"
 width="500.000000pt" height="500.000000pt" viewBox="0 0 500.000000 500.000000"
 preserveAspectRatio="xMidYMid meet">

<g transform="translate(0.000000,500.000000) scale(0.100000,-0.100000)"
fill="#000000" stroke="none">
<path d="M2320 4774 c-871 -107 -1532 -777 -1620 -1643 -14 -140 -13 -233 5
-381 113 -970 965 -1678 1939 -1609 427 30 825 206 1133 502 571 548 723 1403
377 2113 -251 516 -727 880 -1299 994 -86 18 -153 23 -305 25 -107 2 -211 1
-230 -1z m534 -94 c273 -59 500 -160 714 -319 490 -363 758 -980 691 -1589
-44 -406 -214 -758 -503 -1047 -148 -148 -268 -237 -436 -324 -415 -215 -903
-255 -1350 -110 -133 43 -358 156 -469 236 -599 431 -865 1167 -681 1883 26
102 74 229 124 328 260 517 735 863 1315 957 132 22 466 13 595 -15z"/>
<path d="M2516 4483 c-3 -21 -8 -82 -11 -135 l-7 -98 30 0 29 0 8 93 8 92 16
-95 c15 -90 17 -95 42 -98 24 -3 27 2 53 88 15 51 29 90 30 88 1 -1 -1 -41 -4
-88 -4 -47 -7 -85 -6 -86 0 -1 13 -4 28 -8 25 -6 26 -4 32 42 3 26 8 86 11
135 l7 87 -41 0 c-23 0 -44 0 -48 1 -5 0 -17 -29 -28 -65 -11 -35 -23 -67 -26
-71 -4 -3 -10 26 -14 64 -4 39 -10 73 -14 75 -3 2 -25 7 -48 11 l-41 6 -6 -38z"/>
<path d="M2169 4477 c-41 -10 -42 -11 -55 -195 l-7 -93 29 7 c35 8 41 13 46
39 5 29 68 40 88 15 12 -16 21 -18 45 -11 17 4 29 13 28 19 -2 10 -104 182
-127 213 -9 12 -19 13 -47 6z m41 -117 c11 -22 16 -40 11 -40 -5 0 -16 -3 -25
-6 -13 -5 -16 2 -16 40 0 25 2 46 5 46 2 0 14 -18 25 -40z"/>
<path d="M2882 4403 c-49 -137 -49 -175 3 -209 60 -39 130 -33 160 13 18 26
65 157 65 179 0 7 -14 17 -30 23 -35 12 -32 15 -66 -92 -21 -68 -47 -96 -72
-81 -26 17 -26 49 3 131 14 41 24 77 22 79 -2 2 -17 7 -34 10 -29 6 -30 4 -51
-53z"/>
<path d="M1933 4405 l-31 -13 45 -114 c24 -62 49 -117 54 -122 5 -6 20 -4 38
5 l29 14 -47 117 c-25 64 -48 119 -51 121 -3 3 -19 -1 -37 -8z"/>
<path d="M3156 4228 c-55 -87 -66 -112 -55 -119 44 -29 44 -29 80 29 l34 57 3
-82 c3 -75 5 -83 28 -98 15 -9 30 -13 34 -8 4 4 37 54 73 110 l66 102 -29 21
-29 20 -37 -60 c-20 -33 -39 -60 -42 -60 -3 0 -2 36 1 80 6 77 5 80 -20 100
-14 11 -28 20 -32 20 -3 -1 -37 -51 -75 -112z"/>
<path d="M1692 4284 c-60 -34 -62 -37 -49 -57 7 -12 37 -64 66 -114 30 -51 55
-93 56 -93 11 0 98 56 119 77 46 46 25 138 -44 197 -42 35 -73 33 -148 -10z
m125 -73 c29 -42 29 -77 2 -91 -24 -13 -29 -7 -69 67 -20 37 -21 46 -9 54 25
16 53 5 76 -30z"/>
<path d="M3429 4078 c-35 -40 -72 -83 -83 -96 l-20 -23 27 -26 c14 -15 28 -25
30 -22 2 2 40 48 86 102 l83 97 -24 20 c-12 11 -26 19 -29 20 -4 0 -35 -33
-70 -72z"/>
<path d="M2303 4125 c-162 -29 -362 -116 -494 -215 -85 -63 -224 -209 -277
-290 -122 -184 -187 -382 -199 -601 -18 -336 107 -660 349 -900 224 -224 509
-342 828 -343 143 0 234 13 352 50 190 60 352 157 488 294 516 518 453 1354
-135 1795 -128 96 -328 181 -494 210 -102 18 -319 18 -418 0z m380 -40 c597
-90 1023 -632 967 -1227 -18 -191 -88 -388 -191 -539 -56 -83 -185 -217 -268
-278 -192 -142 -433 -221 -676 -221 -589 0 -1084 453 -1133 1037 -63 738 574
1338 1301 1228z"/>
<path d="M3044 3788 c-15 -34 -16 -41 -3 -49 23 -14 35 -10 47 16 17 38 15 62
-7 68 -15 3 -23 -5 -37 -35z"/>
<path d="M2530 3774 c-15 -4 -612 -54 -641 -54 -23 0 233 -506 278 -548 29
-27 34 -38 29 -60 -4 -15 -8 -32 -9 -38 -3 -17 82 -84 108 -84 46 0 48 -37 30
-416 -18 -383 -19 -378 44 -372 33 3 36 0 41 -27 7 -39 30 -42 68 -10 16 14
35 25 42 25 6 0 8 5 5 10 -3 6 -1 10 4 10 6 0 11 7 11 15 0 9 6 12 15 9 17 -7
48 14 40 26 -12 19 30 19 50 0 31 -29 65 -27 65 5 0 24 7 29 65 37 19 3 22 11
37 115 1 7 14 15 30 18 15 3 42 8 58 11 17 3 30 10 30 16 0 6 3 8 6 5 4 -4 22
7 41 23 27 24 43 30 81 31 26 0 65 6 87 13 43 13 42 9 29 96 l-6 35 103 -3
c110 -4 178 9 204 38 15 17 41 138 31 147 -2 3 -31 7 -64 10 -60 6 -60 6 -66
42 -3 20 -6 48 -6 63 0 31 -3 33 -48 43 -28 6 -36 2 -62 -26 -17 -17 -32 -30
-33 -28 -1 2 -22 43 -47 91 -25 48 -48 88 -52 88 -3 0 -21 -16 -39 -35 -22
-23 -42 -35 -61 -35 -33 0 -44 14 -47 60 -1 16 -8 20 -41 20 -35 0 -40 3 -40
23 0 33 -7 37 -40 24 -21 -8 -35 -8 -52 0 -13 6 -31 14 -41 17 -9 3 -16 11
-15 18 2 9 -14 15 -47 18 -32 3 -49 9 -48 17 2 7 -12 19 -30 28 -39 18 -62 33
-94 62 -14 12 -30 21 -36 20 -23 -4 -17 43 22 204 23 90 43 174 46 187 5 22 0
24 -35 16z"/>
<path d="M2899 3743 c-13 -16 -12 -17 4 -4 16 13 21 21 13 21 -2 0 -10 -8 -17
-17z"/>
<path d="M3106 3737 c3 -10 9 -15 12 -12 3 3 0 11 -7 18 -10 9 -11 8 -5 -6z"/>
<path d="M2902 3682 c-109 -102 -39 -275 112 -275 96 0 166 63 166 149 0 38
-3 44 -22 44 -12 0 -37 17 -58 39 -26 28 -41 36 -51 30 -8 -5 -31 -9 -51 -9
-30 0 -40 5 -51 26 l-13 25 -32 -29z m226 -115 c3 -24 -19 -80 -35 -90 -13 -8
-11 107 1 115 18 12 31 3 34 -25z"/>
<path d="M3160 3696 c0 -2 7 -7 16 -10 8 -3 12 -2 9 4 -6 10 -25 14 -25 6z"/>
<path d="M3191 3627 c-13 -21 -12 -21 5 -5 10 10 16 20 13 22 -3 3 -11 -5 -18
-17z"/>
<path d="M2025 3198 c2 -23 -1 -38 -7 -38 -7 0 -7 -4 0 -13 15 -17 4 -57 -15
-57 -11 0 -14 8 -11 30 3 22 1 29 -7 26 -7 -2 -19 1 -26 7 -7 7 -6 3 4 -9 20
-24 24 -72 5 -57 -7 6 -21 13 -30 16 -15 5 -16 3 -6 -18 6 -14 15 -25 19 -25
16 0 20 -97 5 -134 -19 -45 -54 -60 -121 -52 -27 3 -75 9 -106 12 l-56 7 -27
-58 c-15 -32 -29 -70 -33 -84 -3 -14 -14 -43 -24 -63 -11 -21 -19 -53 -19 -72
0 -28 -6 -37 -35 -55 -19 -11 -35 -26 -35 -34 0 -48 151 -107 276 -107 111 0
263 58 294 112 13 25 13 29 -2 44 -9 9 -41 19 -75 23 -51 5 -58 9 -61 29 -2
14 5 33 16 45 29 32 42 62 42 94 0 16 9 46 20 68 11 22 20 54 20 71 0 18 5 34
12 36 7 3 12 28 13 62 1 31 7 62 13 68 14 14 16 48 2 48 -5 0 -13 -8 -19 -17
-17 -31 -24 -5 -7 28 20 41 20 45 -1 28 -12 -10 -15 -11 -9 -1 15 24 25 72 15
72 -5 0 -9 -10 -10 -22 -1 -22 -1 -22 -10 2 -7 21 -8 19 -4 -12z m-13 -163 c0
-5 -5 -11 -11 -13 -6 -2 -11 4 -11 13 0 9 5 15 11 13 6 -2 11 -8 11 -13z m35
0 c0 -8 -4 -12 -9 -9 -4 3 -8 9 -8 15 0 5 4 9 8 9 5 0 9 -7 9 -15z m-57 -125
c0 -5 -4 -10 -10 -10 -5 0 -10 5 -10 10 0 6 5 10 10 10 6 0 10 -4 10 -10z
m-290 -40 c0 -5 -4 -10 -10 -10 -5 0 -10 5 -10 10 0 6 5 10 10 10 6 0 10 -4
10 -10z m45 -10 c3 -5 1 -10 -4 -10 -6 0 -11 5 -11 10 0 6 2 10 4 10 3 0 8 -4
11 -10z m55 0 c0 -5 -4 -10 -10 -10 -5 0 -10 5 -10 10 0 6 5 10 10 10 6 0 10
-4 10 -10z m60 -4 c0 -3 -4 -8 -10 -11 -5 -3 -10 -1 -10 4 0 6 5 11 10 11 6 0
10 -2 10 -4z m60 0 c0 -3 -4 -8 -10 -11 -5 -3 -10 -1 -10 4 0 6 5 11 10 11 6
0 10 -2 10 -4z m90 -6 c0 -5 -4 -10 -10 -10 -5 0 -10 5 -10 10 0 6 5 10 10 10
6 0 10 -4 10 -10z m-40 -20 c0 -5 -4 -10 -10 -10 -5 0 -10 5 -10 10 0 6 5 10
10 10 6 0 10 -4 10 -10z m-260 -4 c0 -3 -4 -8 -10 -11 -5 -3 -10 -1 -10 4 0 6
5 11 10 11 6 0 10 -2 10 -4z m120 -6 c0 -5 -4 -10 -10 -10 -5 0 -10 5 -10 10
0 6 5 10 10 10 6 0 10 -4 10 -10z m-60 -10 c0 -5 -4 -10 -10 -10 -5 0 -10 5
-10 10 0 6 5 10 10 10 6 0 10 -4 10 -10z m-90 -14 c0 -3 -4 -8 -10 -11 -5 -3
-10 -1 -10 4 0 6 5 11 10 11 6 0 10 -2 10 -4z m50 -10 c0 -3 -4 -8 -10 -11 -5
-3 -10 -1 -10 4 0 6 5 11 10 11 6 0 10 -2 10 -4z m164 -35 c12 -13 16 -31 13
-58 l-3 -38 -14 33 c-8 17 -20 32 -27 32 -20 0 -15 -35 7 -55 12 -11 20 -27
18 -37 -3 -16 -15 -19 -89 -22 -75 -3 -87 -1 -98 15 -7 12 -8 25 -2 37 5 9 14
30 20 45 21 54 140 87 175 48z m-214 -17 c0 -8 -5 -12 -10 -9 -6 4 -8 11 -5
16 9 14 15 11 15 -7z m290 -8 c0 -11 -19 -15 -25 -6 -3 5 1 10 9 10 9 0 16 -2
16 -4z m-30 -32 c0 -8 -5 -12 -10 -9 -6 4 -8 11 -5 16 9 14 15 11 15 -7z
m-264 -91 c-1 -1 -21 -6 -44 -11 -38 -9 -42 -8 -42 10 0 10 15 32 32 49 l33
29 11 -37 c6 -21 10 -39 10 -40z"/>
<path d="M1961 3208 c-1 -22 9 -48 20 -48 5 0 9 12 8 28 0 24 -1 24 -8 7 -8
-19 -9 -18 -13 5 -3 14 -6 17 -7 8z"/>
<path d="M1443 4093 c-13 -8 -23 -20 -23 -25 0 -9 37 -53 156 -187 11 -12 24
-4 82 46 l69 60 -19 27 -20 26 -39 -35 c-22 -19 -43 -35 -47 -35 -5 0 -35 31
-68 70 -32 38 -61 69 -64 69 -3 0 -15 -7 -27 -16z"/>
<path d="M3555 3981 c-39 -23 -83 -75 -91 -107 -19 -74 77 -156 150 -128 19 7
19 14 6 49 -9 22 -13 24 -31 15 -16 -9 -25 -8 -40 6 -10 9 -19 25 -19 35 0 24
66 79 95 79 27 0 48 -30 39 -55 -7 -16 20 -44 43 -45 7 0 15 16 19 37 18 95
-88 166 -171 114z"/>
<path d="M1273 3901 l-21 -28 78 -117 78 -117 22 31 c17 23 20 34 11 43 -16
16 -13 28 13 61 20 24 27 26 44 17 18 -9 24 -7 42 20 12 16 21 31 19 33 -9 7
-242 86 -253 86 -7 0 -22 -13 -33 -29z m104 -58 c21 -10 40 -19 42 -20 6 -4
-20 -33 -29 -33 -4 0 -20 16 -34 35 -31 40 -30 41 21 18z"/>
<path d="M3735 3737 c-39 -23 -87 -52 -108 -64 l-38 -23 18 -27 c9 -16 18 -29
19 -31 1 -1 54 27 117 64 l116 67 -17 29 c-9 15 -21 28 -27 27 -5 0 -42 -19
-80 -42z"/>
<path d="M1154 3684 c-41 -20 -69 -80 -60 -127 7 -40 37 -70 88 -92 78 -32
137 -14 169 52 23 48 21 76 -10 114 l-19 24 -26 -24 c-23 -22 -24 -26 -11 -41
51 -57 -34 -93 -103 -44 -30 21 -26 65 6 79 35 16 43 75 9 75 -7 0 -26 -7 -43
-16z"/>
<path d="M3780 3583 c-63 -25 -116 -46 -117 -47 -5 -4 22 -66 28 -66 4 0 23 7
44 16 42 17 41 18 63 -28 28 -55 91 -63 140 -18 12 11 22 31 22 43 0 26 -45
141 -57 144 -4 1 -60 -19 -123 -44z m114 -59 c7 -19 -10 -44 -30 -44 -11 0
-34 29 -34 44 0 5 25 13 46 15 7 0 15 -6 18 -15z"/>
<path d="M1211 3345 c-7 -30 -16 -55 -21 -55 -5 0 -48 9 -95 20 -47 11 -87 20
-90 20 -6 0 -17 -61 -12 -66 3 -3 60 -18 127 -34 87 -20 123 -24 126 -16 13
34 40 167 35 170 -3 2 -18 6 -32 9 -25 6 -27 4 -38 -48z"/>
<path d="M3741 3318 c5 -18 9 -34 9 -35 0 -2 11 -3 24 -3 21 0 25 -6 31 -41 6
-33 4 -44 -9 -51 -17 -10 -21 -45 -7 -67 7 -11 32 0 120 53 61 37 112 70 115
74 2 4 1 23 -3 42 l-7 35 -109 12 c-61 6 -124 12 -142 12 -31 1 -31 0 -22 -31z
m184 -48 c15 -1 12 -5 -15 -20 -46 -25 -50 -25 -50 6 0 22 3 25 23 20 12 -3
31 -6 42 -6z"/>
<path d="M1120 3140 c-58 -15 -118 -30 -133 -34 -26 -6 -28 -10 -25 -47 l3
-40 117 -50 c65 -27 122 -49 128 -49 5 0 10 15 10 34 0 26 -5 36 -20 41 -34
11 -25 95 11 95 13 0 19 7 19 24 0 13 3 31 6 40 7 19 13 20 -116 -14z m10 -88
c0 -26 -9 -32 -33 -22 -12 5 -31 12 -42 16 -18 6 -17 8 10 14 52 13 65 11 65
-8z"/>
<path d="M3790 2974 l0 -95 33 3 c32 3 32 3 32 58 l0 55 98 3 97 3 0 34 0 35
-130 0 -130 0 0 -96z"/>
<path d="M1249 2149 c-108 -79 -103 -73 -89 -99 9 -16 15 -19 25 -10 20 17 75
30 75 19 0 -6 -12 -26 -26 -44 l-26 -34 20 -26 21 -26 41 71 42 70 49 0 c27 0
49 2 49 5 0 3 -7 16 -15 29 -14 20 -22 23 -68 19 l-52 -4 33 21 c34 24 40 41
19 59 -11 8 -33 -3 -98 -50z"/>
<path d="M3650 2171 c-38 -37 -38 -55 -1 -92 35 -34 44 -35 95 -9 28 16 41 18
51 10 21 -18 6 -43 -21 -36 -29 8 -56 -30 -33 -45 26 -16 65 -9 89 15 32 35
29 74 -9 108 -37 33 -56 35 -96 8 -37 -25 -58 -26 -53 -2 2 11 12 16 25 15 14
-2 24 4 28 18 8 24 7 24 -23 33 -17 6 -29 0 -52 -23z"/>
<path d="M1367 1991 c-74 -77 -82 -102 -44 -147 41 -48 99 -29 187 60 42 43
43 47 27 63 -18 19 -17 19 -109 -66 -23 -21 -42 -31 -52 -28 -31 12 -16 45 43
99 52 47 58 55 46 71 -6 9 -17 17 -22 17 -5 0 -40 -31 -76 -69z"/>
<path d="M3523 2009 c-33 -12 -56 -53 -48 -87 8 -39 57 -96 100 -117 30 -14
42 -15 65 -5 48 20 62 72 31 119 -14 22 -54 -4 -42 -27 28 -52 -43 -53 -79 -2
-26 37 -23 65 8 65 21 0 41 19 42 37 0 12 -55 25 -77 17z"/>
<path d="M3703 1961 c-10 -16 -8 -22 11 -40 23 -21 23 -21 41 -1 17 19 17 20
-6 39 -30 25 -32 25 -46 2z"/>
<path d="M1492 1843 c-70 -87 -70 -88 -52 -107 19 -19 19 -19 39 6 11 14 30
28 41 31 24 6 24 9 5 -43 -19 -53 -19 -52 10 -73 l24 -17 11 42 c6 24 16 59
21 79 7 27 16 39 34 43 13 3 36 11 51 16 l26 10 -26 21 c-25 20 -28 20 -67 5
-53 -21 -54 -21 -29 14 18 25 19 34 10 45 -7 8 -16 15 -20 15 -5 0 -40 -39
-78 -87z"/>
<path d="M3299 1821 c-36 -36 -35 -67 2 -128 43 -69 117 -92 157 -50 36 38 27
97 -14 97 -21 0 -23 -4 -19 -23 4 -15 0 -28 -10 -37 -15 -13 -21 -10 -52 23
-41 46 -43 83 -2 80 30 -2 55 29 36 45 -7 6 -24 13 -39 17 -22 6 -33 1 -59
-24z"/>
<path d="M1653 1723 c-46 -72 -59 -101 -51 -110 18 -22 35 -15 58 22 28 46 40
37 28 -22 -9 -40 -8 -48 8 -60 10 -7 21 -13 25 -13 9 0 23 64 21 93 0 10 6 17
18 17 24 0 60 46 60 76 0 17 -14 34 -47 59 -27 19 -50 35 -53 35 -3 0 -33 -44
-67 -97z m107 12 c14 -17 5 -35 -19 -35 -25 0 -32 10 -20 31 12 23 22 24 39 4z"/>
<path d="M3510 1764 c-11 -13 -10 -19 8 -37 21 -20 23 -20 39 -4 16 15 16 18
-2 37 -22 24 -29 25 -45 4z"/>
<path d="M3103 1710 c-13 -5 -23 -11 -23 -12 0 -17 40 -232 44 -235 2 -3 14 1
26 7 14 7 19 17 15 29 -4 13 3 21 22 30 23 11 29 10 39 -4 10 -13 17 -14 33
-5 12 6 21 13 21 16 0 8 -140 179 -148 181 -4 1 -17 -2 -29 -7z m77 -121 c0
-4 -7 -9 -14 -12 -10 -4 -17 2 -21 16 -18 61 -17 63 9 32 14 -16 25 -33 26
-36z"/>
<path d="M1825 1624 c-38 -46 -71 -88 -73 -93 -5 -15 38 -23 54 -10 22 18 67
-5 59 -30 -4 -14 0 -23 15 -31 12 -6 24 -10 26 -7 2 2 14 55 25 117 20 109 20
115 3 127 -10 7 -23 13 -28 13 -6 -1 -42 -39 -81 -86z m64 -27 c-7 -25 -14
-34 -24 -30 -19 7 -19 8 7 43 27 37 30 34 17 -13z"/>
<path d="M2033 1529 l-30 -111 21 -8 c29 -11 33 -6 41 41 6 36 10 40 33 37 24
-3 27 -7 24 -33 -8 -67 -7 -70 15 -73 18 -3 24 4 33 40 7 24 20 74 30 111 18
64 18 68 2 74 -9 3 -20 8 -24 10 -4 2 -12 -15 -18 -38 -10 -35 -14 -40 -33
-35 -12 3 -25 6 -29 6 -4 0 -3 12 2 26 17 43 13 64 -13 64 -21 0 -26 -10 -54
-111z"/>
<path d="M2862 1623 c-40 -12 -51 -20 -48 -32 3 -9 17 -60 32 -113 26 -95 34
-107 62 -89 11 6 11 16 3 47 -17 60 -13 62 28 15 33 -37 43 -43 65 -37 30 7
27 21 -18 69 -22 23 -24 32 -15 48 13 26 5 63 -21 89 -23 23 -19 23 -88 3z
m61 -57 c6 -15 -11 -36 -29 -36 -13 0 -26 35 -16 44 11 11 40 6 45 -8z"/>
<path d="M3295 1616 c-17 -12 -18 -18 -7 -40 13 -29 21 -32 44 -13 14 11 14
15 -1 39 -16 25 -20 26 -36 14z"/>
<path d="M2235 1503 c-9 -54 -19 -108 -22 -121 -5 -21 -2 -23 23 -20 28 3 29
5 47 112 10 60 16 110 15 111 -2 1 -13 5 -24 9 -20 6 -23 1 -39 -91z"/>
<path d="M2326 1503 c-12 -142 -10 -150 25 -157 17 -3 47 -6 65 -6 31 0 34 3
34 30 0 28 -2 30 -39 30 l-40 0 6 90 6 90 -25 0 c-24 0 -25 -3 -32 -77z"/>
<path d="M2498 1573 c-20 -5 -23 -46 -11 -165 l6 -68 63 0 64 0 0 30 c0 28 -2
30 -39 30 l-38 0 -7 53 c-3 28 -6 69 -6 90 0 20 -3 36 -7 36 -5 -1 -16 -3 -25
-6z"/>
<path d="M3048 1498 c-14 -11 -15 -17 -5 -39 10 -22 16 -25 34 -18 20 7 21 11
12 39 -12 33 -18 36 -41 18z"/>
<path d="M2713 1464 c-7 -3 -13 -17 -13 -30 0 -25 9 -28 48 -18 16 5 22 13 20
28 -3 21 -30 30 -55 20z"/>
<path d="M344 3435 c-22 -33 -15 -161 10 -200 14 -22 15 -31 5 -68 -15 -51
-29 -70 -29 -39 0 72 -94 168 -152 154 -27 -6 -23 -59 8 -99 39 -52 142 -122
118 -80 -4 6 2 3 14 -7 18 -16 21 -26 16 -55 -4 -20 -8 -37 -9 -39 -2 -2 -22
17 -44 41 -46 50 -85 70 -126 65 -70 -8 -49 -71 41 -120 57 -31 111 -47 100
-30 -5 8 -2 10 8 6 12 -4 16 -20 16 -55 0 -27 -3 -49 -6 -49 -4 0 -24 20 -45
44 -44 50 -82 69 -130 64 -83 -8 -19 -105 91 -141 28 -9 57 -14 65 -11 12 5
15 -3 15 -39 0 -25 -3 -54 -7 -64 -6 -16 -8 -15 -13 7 -9 39 -92 90 -146 90
-34 0 -46 -5 -55 -21 -9 -17 -7 -25 13 -46 31 -35 101 -65 157 -68 l46 -3 3
-61 c2 -40 -1 -61 -8 -61 -6 0 -8 5 -5 10 8 14 -51 69 -92 86 -43 18 -88 18
-107 -2 -21 -20 -20 -26 4 -52 34 -37 101 -65 160 -68 30 -1 55 -6 56 -11 8
-32 9 -113 2 -113 -5 0 -23 16 -41 37 -33 38 -97 72 -133 73 -12 0 -32 -8 -45
-19 -22 -18 -22 -20 -7 -44 24 -36 99 -69 173 -74 61 -5 63 -7 69 -36 3 -16 6
-39 6 -50 0 -19 -3 -18 -33 10 -63 60 -148 83 -178 47 -35 -42 72 -117 169
-118 47 -1 53 -4 57 -23 3 -13 7 -34 10 -47 6 -32 -5 -40 -22 -16 -46 66 -203
81 -203 20 0 -44 93 -84 184 -79 50 3 51 3 63 -31 7 -19 12 -45 12 -57 l1 -22
-24 24 c-57 57 -158 83 -201 51 -17 -12 -18 -17 -7 -40 18 -40 74 -60 166 -62
l79 -1 28 -79 c15 -43 26 -80 24 -83 -3 -2 -21 11 -42 29 -111 98 -303 113
-303 24 0 -84 226 -143 350 -90 12 5 23 -9 43 -53 15 -32 27 -61 27 -64 0 -3
-24 5 -53 19 -82 37 -160 50 -216 35 -124 -33 -118 -131 11 -161 90 -22 264
-2 289 33 4 5 17 -6 31 -24 61 -84 88 -123 85 -125 -2 -2 -24 7 -50 20 -59 30
-175 50 -240 42 -140 -19 -202 -120 -105 -173 25 -14 55 -18 123 -18 105 1
189 23 253 66 24 16 45 29 47 29 6 0 99 -100 103 -110 2 -4 -4 -10 -13 -14 -9
-3 -14 -2 -11 3 14 22 -164 27 -241 7 -133 -35 -195 -132 -118 -182 67 -44
279 19 368 109 l49 48 56 -53 c32 -29 58 -60 60 -68 3 -13 2 -13 -6 -1 -15 21
-191 9 -264 -18 -104 -40 -168 -101 -168 -162 0 -61 61 -89 150 -71 113 24
296 141 315 203 9 27 24 24 75 -17 59 -47 64 -57 37 -80 l-22 -19 18 21 c23
28 9 33 -56 22 -137 -25 -247 -112 -247 -194 0 -62 65 -82 145 -45 92 42 214
159 215 205 0 23 13 18 90 -34 57 -39 76 -58 45 -47 -18 8 -145 -27 -197 -54
-126 -64 -194 -191 -133 -249 20 -19 32 -22 77 -18 65 6 123 33 208 97 65 49
155 156 144 172 -3 5 -3 9 0 9 11 0 176 -85 176 -90 0 -3 -17 -22 -37 -41
l-38 -34 30 34 30 34 -54 -6 c-121 -14 -248 -79 -291 -150 -24 -39 -26 -100
-4 -121 20 -20 93 -21 141 -1 92 38 222 160 247 229 7 20 7 20 -16 1 -16 -13
-15 -10 4 10 l27 29 67 -30 c37 -16 69 -35 72 -42 2 -7 -2 -10 -12 -6 -26 10
-179 -71 -241 -127 -87 -80 -122 -167 -91 -227 22 -43 68 -51 132 -23 101 45
250 241 257 338 1 18 3 33 5 33 2 0 65 -23 140 -51 75 -27 143 -52 151 -55 8
-2 12 -6 10 -8 -2 -3 -73 -17 -158 -32 l-153 -28 -90 -119 c-49 -65 -88 -121
-85 -123 11 -11 492 84 744 145 l153 38 133 -34 c129 -33 624 -135 721 -149
l50 -7 -30 40 c-16 22 -58 78 -94 126 -35 48 -71 87 -79 87 -38 0 -291 53
-291 61 0 5 6 9 14 9 8 0 74 23 147 50 73 28 135 50 138 50 4 0 12 -10 20 -23
13 -21 13 -21 -4 -7 -16 14 -17 12 -10 -20 15 -71 68 -157 145 -236 65 -66
104 -91 157 -100 36 -5 45 -3 67 19 44 45 31 125 -35 208 -39 49 -160 129
-233 154 -31 11 -56 22 -56 25 0 11 129 62 140 55 5 -3 10 -13 10 -21 0 -26
46 -88 104 -141 140 -129 306 -153 306 -45 0 52 -68 130 -148 171 -47 24 -149
51 -192 51 -29 0 -31 -2 -19 -17 11 -15 10 -15 -8 1 -13 10 -21 22 -18 26 5 8
166 93 168 88 47 -94 145 -190 251 -243 77 -39 146 -46 184 -19 24 17 30 71
12 118 -15 42 -88 106 -153 137 -69 31 -175 62 -188 53 -5 -3 -9 -1 -9 4 0 10
117 85 137 88 7 1 18 -5 25 -14 12 -15 11 -16 -4 -3 -27 20 -22 -1 11 -46 61
-84 198 -173 268 -173 35 0 73 29 73 55 0 29 -28 82 -56 109 -63 60 -225 117
-267 94 -33 -17 -10 9 45 52 46 37 88 54 73 30 -4 -6 20 -36 52 -68 71 -69
186 -129 276 -144 72 -12 107 -2 132 36 14 21 15 31 5 61 -31 95 -180 165
-348 165 -61 0 -73 -3 -69 -14 4 -10 1 -13 -9 -9 -23 9 -17 19 52 79 58 51 67
56 76 41 53 -96 306 -190 391 -146 71 38 38 124 -65 169 -42 19 -72 24 -143
24 -49 1 -110 -2 -133 -7 l-44 -8 53 61 c46 54 79 75 79 52 0 -12 72 -51 127
-67 68 -21 190 -30 238 -16 89 24 111 86 51 139 -34 29 -106 52 -164 52 -45 0
-163 -29 -204 -49 -21 -10 -38 -16 -38 -14 0 3 23 38 51 79 48 68 69 88 69 64
0 -5 26 -17 57 -26 72 -21 222 -15 270 10 98 50 68 132 -55 152 -52 8 -170
-20 -217 -52 -19 -13 -35 -20 -35 -15 0 4 14 36 30 70 25 50 34 61 48 56 105
-44 292 -11 338 60 15 23 15 27 0 50 -24 37 -80 48 -150 30 -54 -14 -156 -70
-170 -94 -4 -6 -11 -11 -15 -11 -4 0 5 37 21 83 l29 82 82 0 c64 0 89 4 116
20 45 26 59 50 45 73 -26 41 -131 22 -190 -33 -20 -20 -39 -33 -41 -31 -2 2 2
27 9 56 l14 52 74 2 c84 3 142 25 158 61 25 54 -69 74 -149 32 -24 -13 -50
-34 -56 -48 -12 -23 -13 -23 -12 11 2 65 12 85 42 82 15 -2 51 4 81 12 134 39
162 146 32 122 -48 -9 -116 -61 -116 -89 -1 -17 -2 -19 -9 -7 -5 8 -7 36 -4
61 l5 46 67 5 c132 10 236 102 149 132 -42 15 -102 -9 -155 -59 -26 -25 -49
-43 -51 -40 -3 3 -1 30 4 61 l9 56 50 2 c133 5 241 124 122 134 -41 4 -100
-23 -136 -62 -34 -36 -41 -33 -41 17 0 55 7 62 58 64 58 3 149 45 163 77 36
78 -101 74 -176 -4 -16 -17 -32 -30 -36 -30 -4 0 -6 21 -5 46 1 46 2 47 36 50
85 9 197 94 174 132 -28 44 -142 7 -181 -58 -9 -17 -21 -30 -25 -30 -7 0 -9
11 -12 76 -1 12 9 17 32 19 44 4 139 52 158 80 9 13 14 34 12 47 -7 53 -119
23 -175 -47 -15 -19 -31 -35 -35 -35 -5 0 -8 20 -8 45 0 25 3 45 8 46 68 7
151 78 168 145 13 50 -52 64 -103 23 -18 -15 -59 -86 -68 -119 l-7 -25 28 25
29 25 -24 -27 c-19 -21 -27 -25 -38 -17 -7 6 -13 21 -13 33 0 11 -4 28 -10 36
-5 9 -5 19 1 27 6 7 7 18 3 24 -4 7 -3 9 4 5 25 -15 36 150 13 193 -17 30 -61
25 -79 -9 -16 -31 -10 -127 11 -169 8 -17 13 -40 10 -51 -5 -19 -7 -18 -41 11
-74 65 -152 76 -152 20 0 -49 63 -97 151 -116 l34 -7 -20 23 c-18 23 -18 22 7
-1 28 -27 42 -90 28 -125 -8 -19 -9 -19 -9 2 -1 29 -85 101 -127 109 -47 9
-64 0 -64 -34 0 -46 59 -93 139 -111 37 -8 42 -7 36 7 -5 13 -3 13 14 -2 19
-18 35 -116 18 -116 -5 0 -5 -5 -1 -12 4 -7 3 -8 -5 -4 -6 4 -9 12 -5 17 9 16
-73 86 -122 105 -49 19 -74 9 -74 -30 0 -48 63 -96 145 -112 38 -7 39 -6 25
12 -8 10 0 6 18 -10 28 -26 32 -35 29 -73 -1 -23 -6 -43 -10 -43 -5 0 -5 -6
-1 -12 5 -10 3 -10 -7 0 -8 7 -14 20 -14 29 0 23 -92 91 -133 99 -24 5 -38 2
-50 -10 -16 -15 -15 -19 3 -53 21 -39 81 -76 145 -89 l35 -6 -20 23 c-20 23
-20 23 12 -1 28 -22 32 -31 32 -72 1 -46 -11 -64 -22 -34 -8 21 -92 75 -127
82 -35 7 -60 -9 -60 -39 0 -31 65 -85 122 -102 66 -19 74 -19 57 3 -13 15 -12
16 4 3 19 -15 25 -111 6 -111 -5 0 -7 -5 -3 -11 4 -8 0 -8 -15 0 -24 13 -28
23 -6 15 31 -12 3 27 -41 57 -51 35 -98 47 -119 29 -22 -18 -19 -35 15 -74 38
-43 170 -92 144 -53 -5 7 -1 5 8 -6 12 -13 15 -28 11 -50 -3 -18 -7 -34 -9
-36 -2 -2 -22 13 -46 33 -72 62 -148 71 -148 16 0 -42 94 -110 151 -110 22 0
22 0 3 23 l-19 22 23 -20 c20 -16 23 -27 19 -58 -6 -47 -15 -58 -28 -35 -5 10
-30 29 -54 43 -56 33 -108 32 -113 -3 -5 -32 53 -87 108 -103 25 -7 48 -15 52
-18 7 -6 -8 -80 -17 -89 -2 -2 -20 15 -40 37 -70 77 -142 102 -169 58 -25 -40
86 -157 150 -157 29 0 32 -26 7 -73 -11 -22 -18 -27 -21 -17 -3 8 -20 34 -39
58 -56 68 -121 92 -143 52 -22 -42 18 -107 93 -150 52 -30 78 -31 55 -2 -12
15 -11 16 4 4 16 -13 16 -17 2 -50 -22 -55 -44 -83 -56 -76 -7 4 -7 8 0 13 28
17 -79 153 -131 166 -76 20 -75 -83 2 -147 16 -14 50 -34 75 -44 25 -11 46
-22 46 -26 0 -11 -54 -98 -61 -98 -3 0 -14 21 -24 47 -10 26 -41 70 -70 100
-40 42 -58 53 -83 53 -57 0 -67 -63 -21 -137 29 -46 118 -116 140 -110 25 7
14 -18 -34 -75 -49 -58 -65 -66 -59 -28 6 39 -40 136 -86 183 -88 90 -150 8
-82 -110 26 -45 96 -111 133 -127 7 -2 -7 -23 -36 -51 -47 -46 -70 -52 -60
-16 7 28 -38 120 -78 159 -56 54 -109 32 -95 -40 8 -43 69 -116 120 -143 20
-11 36 -22 36 -25 0 -7 -95 -80 -104 -80 -4 0 -5 8 -2 18 11 32 -31 145 -65
180 -58 59 -106 19 -81 -66 13 -43 86 -132 108 -132 28 0 13 -25 -30 -53 -24
-15 -47 -27 -52 -27 -5 0 -9 28 -10 63 0 71 -28 136 -69 163 -24 16 -27 15
-45 -1 -12 -11 -20 -31 -20 -50 0 -41 44 -128 81 -159 16 -14 29 -28 29 -33 0
-9 -73 -53 -88 -53 -5 0 -7 14 -4 30 11 73 -47 200 -91 200 -32 0 -47 -18 -47
-59 0 -47 34 -113 76 -150 19 -17 34 -33 34 -36 0 -6 -96 -55 -107 -55 -4 0
-8 33 -8 73 0 86 -26 150 -63 155 -36 5 -52 -15 -52 -67 0 -50 41 -148 66
-158 24 -9 16 -22 -26 -43 -21 -11 -42 -20 -45 -20 -3 0 -5 25 -5 55 0 58 -28
145 -56 176 -21 23 -57 25 -75 3 -20 -24 -15 -103 10 -155 27 -57 58 -92 74
-83 7 4 5 0 -3 -8 -16 -17 -121 -58 -147 -58 -15 0 -14 2 2 14 40 29 -10 232
-71 286 -40 35 -57 37 -83 11 -55 -55 -30 -175 62 -294 16 -21 28 -40 26 -42
-14 -13 -386 -118 -536 -150 -78 -17 -85 -17 -155 0 -177 42 -525 140 -537
151 -2 1 13 22 33 45 53 62 80 125 84 196 4 56 2 64 -21 87 -15 14 -33 26 -43
26 -32 0 -81 -64 -103 -134 -24 -76 -28 -181 -8 -190 33 -16 -55 5 -97 24
l-49 21 21 22 c61 66 90 183 55 226 -31 38 -68 23 -98 -41 -29 -63 -42 -152
-25 -173 10 -12 7 -13 -16 -9 -32 6 -84 32 -84 42 0 4 9 13 21 20 27 17 69
108 69 153 0 70 -52 92 -92 38 -27 -35 -46 -153 -30 -179 10 -17 10 -20 -3
-20 -18 0 -105 42 -105 50 0 4 18 26 40 50 72 78 88 200 26 200 -49 0 -97 -90
-100 -187 0 -24 -2 -43 -4 -43 -4 0 -86 42 -91 46 -3 3 14 23 36 47 53 55 73
96 73 151 0 35 -5 48 -20 56 -24 13 -50 1 -73 -33 -24 -37 -50 -136 -43 -168
7 -36 1 -36 -58 1 l-48 31 50 44 c27 25 57 61 66 80 21 43 17 104 -6 119 -43
27 -123 -88 -123 -176 0 -27 -3 -48 -6 -48 -16 0 -99 73 -99 87 0 9 3 13 6 10
11 -10 91 53 119 93 21 30 26 48 23 81 -3 39 -6 44 -29 47 -38 4 -83 -38 -120
-113 -21 -43 -29 -70 -24 -85 10 -30 -4 -24 -60 29 l-46 43 28 15 c41 21 102
82 124 125 21 42 25 108 7 126 -19 19 -54 14 -86 -12 -40 -35 -94 -140 -96
-187 l-1 -39 -40 40 c-22 22 -48 53 -58 69 -16 28 -16 29 0 25 28 -8 113 55
144 105 31 48 38 108 17 129 -26 26 -70 14 -114 -33 -44 -46 -84 -112 -84
-140 0 -28 -18 -16 -50 35 -28 44 -34 80 -10 65 16 -10 85 32 123 74 42 47 53
80 37 111 -24 44 -94 8 -161 -84 -40 -54 -38 -78 3 -40 l32 29 -29 -36 c-17
-20 -35 -34 -41 -32 -10 4 -44 66 -44 81 0 5 16 16 35 25 87 42 148 132 115
172 -30 36 -98 -1 -161 -88 l-28 -39 -16 37 c-17 41 -20 69 -6 61 15 -10 126
53 150 84 15 21 21 42 19 63 -3 27 -7 32 -33 35 -37 4 -117 -46 -142 -89 -22
-37 -28 -36 -42 2 -17 48 -14 69 9 69 32 0 110 41 126 66 22 33 15 68 -15 72
-37 6 -64 -5 -108 -43 -44 -37 -46 -37 -57 8 -4 18 -2 29 6 31 7 2 32 9 56 15
58 16 112 65 112 101 0 20 -6 31 -20 35 -25 8 -96 -24 -134 -59 -22 -22 -31
-25 -37 -14 -13 19 -11 76 3 84 7 4 8 3 4 -4 -12 -20 35 -14 91 12 57 27 86
62 81 98 -7 49 -82 31 -158 -38 l-38 -35 -7 40 c-7 42 0 65 16 55 17 -10 110
27 145 58 37 33 47 84 18 95 -27 10 -90 -16 -137 -57 -25 -22 -47 -37 -49 -33
-3 5 -5 24 -7 43 -2 27 4 41 20 55 12 11 19 14 15 7 -11 -18 56 -6 106 19 105
53 101 161 -5 118 -45 -19 -117 -87 -117 -113 -1 -19 -2 -19 -11 -3 -5 9 -9
38 -7 64 l3 48 53 7 c65 10 102 28 136 68 77 93 -28 116 -128 29 -42 -37 -63
-71 -33 -53 8 5 7 2 -2 -10 -19 -23 -31 -4 -31 50 0 33 6 46 32 70 18 16 25
19 15 7 l-18 -21 43 9 c62 14 123 53 138 88 17 43 7 61 -33 61 -53 0 -168 -84
-151 -111 2 -4 1 -10 -4 -13 -5 -3 -10 19 -11 48 -1 39 3 58 16 72 10 11 14
13 8 5 -8 -12 -4 -13 30 -7 106 20 189 106 140 146 -9 8 -27 10 -46 6 -32 -6
-119 -63 -119 -78 0 -4 -4 -8 -9 -8 -12 0 -22 43 -12 50 14 9 33 79 33 126 0
82 -53 123 -88 69z m-39 -295 c10 -11 16 -20 13 -20 -3 0 -13 9 -23 20 -10 11
-16 20 -13 20 3 0 13 -9 23 -20z m-24 -7 c13 -16 12 -17 -3 -4 -10 7 -18 15
-18 17 0 8 8 3 21 -13z m4469 4 c0 -2 -10 -12 -22 -23 l-23 -19 19 23 c18 21
26 27 26 19z m-179 -124 c13 -16 12 -17 -3 -4 -17 13 -22 21 -14 21 2 0 10 -8
17 -17z m-4121 -147 c0 -2 -8 -10 -17 -17 -16 -13 -17 -12 -4 4 13 16 21 21
21 13z m10 -140 c0 -2 -8 -10 -17 -17 -16 -13 -17 -12 -4 4 13 16 21 21 21 13z
m-10 -160 c0 -2 -8 -10 -17 -17 -16 -13 -17 -12 -4 4 13 16 21 21 21 13z m5
-276 c-3 -5 -12 -10 -18 -10 -7 0 -6 4 3 10 19 12 23 12 15 0z m4100 -148 c-3
-3 -11 0 -18 7 -9 10 -8 11 6 5 10 -3 15 -9 12 -12z m-4055 -6 c0 -2 -8 -10
-17 -17 -16 -13 -17 -12 -4 4 13 16 21 21 21 13z m70 -139 c0 -2 -12 -14 -27
-28 l-28 -24 24 28 c23 25 31 32 31 24z m3865 -157 c10 -11 16 -20 13 -20 -3
0 -13 9 -23 20 -10 11 -16 20 -13 20 3 0 13 -9 23 -20z m-3805 7 c0 -2 -10
-12 -22 -23 l-23 -19 19 23 c18 21 26 27 26 19z m3695 -137 c10 -11 16 -20 13
-20 -3 0 -13 9 -23 20 -10 11 -16 20 -13 20 3 0 13 -9 23 -20z m-3535 -114 c0
-2 -8 -10 -17 -17 -16 -13 -17 -12 -4 4 13 16 21 21 21 13z m3431 -23 c13 -16
12 -17 -3 -4 -17 13 -22 21 -14 21 2 0 10 -8 17 -17z m34 -3 c10 -11 16 -20
13 -20 -3 0 -13 9 -23 20 -10 11 -16 20 -13 20 3 0 13 -9 23 -20z m-3495 -14
c0 -2 -8 -10 -17 -17 -16 -13 -17 -12 -4 4 13 16 21 21 21 13z m293 -261 c-3
-9 -8 -14 -10 -11 -3 3 -2 9 2 15 9 16 15 13 8 -4z m2888 -352 c13 -16 12 -17
-3 -4 -10 7 -18 15 -18 17 0 8 8 3 21 -13z m-2801 3 c0 -2 -8 -10 -17 -17 -16
-13 -17 -12 -4 4 13 16 21 21 21 13z m-70 -10 c0 -2 -8 -10 -17 -17 -16 -13
-17 -12 -4 4 13 16 21 21 21 13z m2630 -101 c13 -14 21 -25 18 -25 -2 0 -15
11 -28 25 -13 14 -21 25 -18 25 2 0 15 -11 28 -25z m-2390 -8 c0 -2 -10 -12
-22 -23 l-23 -19 19 23 c18 21 26 27 26 19z m2361 -24 c13 -16 12 -17 -3 -4
-10 7 -18 15 -18 17 0 8 8 3 21 -13z m84 -13 c10 -11 16 -20 13 -20 -3 0 -13
9 -23 20 -10 11 -16 20 -13 20 3 0 13 -9 23 -20z m-2495 -4 c0 -2 -8 -10 -17
-17 -16 -13 -17 -12 -4 4 13 16 21 21 21 13z m2205 -116 c10 -11 16 -20 13
-20 -3 0 -13 9 -23 20 -10 11 -16 20 -13 20 3 0 13 -9 23 -20z m60 0 c10 -11
16 -20 13 -20 -3 0 -13 9 -23 20 -10 11 -16 20 -13 20 3 0 13 -9 23 -20z
m-2035 -4 c0 -2 -8 -10 -17 -17 -16 -13 -17 -12 -4 4 13 16 21 21 21 13z
m2081 -33 c13 -16 12 -17 -3 -4 -17 13 -22 21 -14 21 2 0 10 -8 17 -17z
m-1791 -27 c0 -2 -8 -10 -17 -17 -16 -13 -17 -12 -4 4 13 16 21 21 21 13z
m1495 -36 c10 -11 16 -20 13 -20 -3 0 -13 9 -23 20 -10 11 -16 20 -13 20 3 0
13 -9 23 -20z m56 -7 c13 -16 12 -17 -3 -4 -10 7 -18 15 -18 17 0 8 8 3 21
-13z m-1591 -6 c0 -2 -12 -14 -27 -28 l-28 -24 24 28 c23 25 31 32 31 24z
m-60 -10 c0 -2 -10 -12 -22 -23 l-23 -19 19 23 c18 21 26 27 26 19z m1656 -39
l29 -33 -32 29 c-31 28 -38 36 -30 36 2 0 16 -15 33 -32z m39 2 c10 -11 16
-20 13 -20 -3 0 -13 9 -23 20 -10 11 -16 20 -13 20 3 0 13 -9 23 -20z m-1705
-14 c0 -2 -8 -10 -17 -17 -16 -13 -17 -12 -4 4 13 16 21 21 21 13z"/>
</g>
</svg>
